<svg width="763" height="452" viewBox="0 0 763 452" fill="none" xmlns="http://www.w3.org/2000/svg">
<g opacity="0.8">
<path d="M0 188L5.20354 192.088L9.29204 188L13.3805 192.088L17.469 188L21.5575 192.088L25.646 188L29.7345 192.088L33.823 188L37.9115 192.088L42 188" stroke="black" stroke-width="0.7"/>
<path d="M0 192.089L5.20354 196.177L9.29204 192.089L13.3805 196.177L17.469 192.089L21.5575 196.177L25.646 192.089L29.7345 196.177L33.823 192.089L37.9115 196.177L42 192.089" stroke="black" stroke-width="0.7"/>
<path d="M0 196.177L5.20354 200.265L9.29204 196.177L13.3805 200.265L17.469 196.177L21.5575 200.265L25.646 196.177L29.7345 200.265L33.823 196.177L37.9115 200.265L42 196.177" stroke="black" stroke-width="0.7"/>
<path d="M0 200.266L5.20354 204.354L9.29204 200.266L13.3805 204.354L17.469 200.266L21.5575 204.354L25.646 200.266L29.7345 204.354L33.823 200.266L37.9115 204.354L42 200.266" stroke="black" stroke-width="0.7"/>
<circle cx="685.5" cy="143.5" r="9" stroke="#010101"/>
<circle cx="656.5" cy="160.5" r="4" stroke="#010101"/>
<path d="M683.5 180.5C683.5 183.779 680.625 186.5 677 186.5C673.375 186.5 670.5 183.779 670.5 180.5C670.5 177.221 673.375 174.5 677 174.5C680.625 174.5 683.5 177.221 683.5 180.5Z" stroke="#010101"/>
</g>
</svg>
