<svg width="763" height="452" viewBox="0 0 763 452" fill="none" xmlns="http://www.w3.org/2000/svg">
<g clip-path="url(#clip0_1_2)">
<path d="M546.985 116.048L353.969 454.533C351.308 459.199 354.678 465 360.05 465H750.319C755.72 465 759.086 459.142 756.367 454.476L559.114 115.991C556.399 111.332 549.656 111.364 546.985 116.048Z" fill="black"/>
<path d="M590.366 142.923C590.043 142.362 589.879 141.776 589.874 141.164C589.874 140.549 590.03 139.971 590.342 139.43C590.663 138.892 591.119 138.453 591.708 138.114C592.298 137.776 592.903 137.605 593.524 137.602C594.154 137.601 594.732 137.757 595.258 138.07C595.79 138.38 596.217 138.815 596.539 139.375C596.864 139.942 597.027 140.533 597.027 141.148C597.033 141.76 596.878 142.333 596.562 142.868C596.247 143.403 595.791 143.842 595.196 144.184C594.601 144.526 593.992 144.699 593.371 144.702C592.75 144.705 592.174 144.552 591.642 144.242C591.117 143.929 590.691 143.489 590.366 142.923ZM591.05 142.529C591.293 142.951 591.609 143.273 591.998 143.496C592.39 143.724 592.824 143.829 593.297 143.81C593.774 143.797 594.253 143.653 594.733 143.377C595.218 143.098 595.584 142.758 595.829 142.355C596.084 141.955 596.213 141.531 596.217 141.083C596.221 140.635 596.1 140.197 595.854 139.769C595.608 139.341 595.291 139.016 594.902 138.794C594.512 138.572 594.079 138.467 593.602 138.479C593.134 138.495 592.657 138.642 592.172 138.921C591.692 139.196 591.325 139.534 591.07 139.934C590.819 140.34 590.692 140.767 590.688 141.215C590.687 141.669 590.808 142.107 591.05 142.529ZM599.255 144.263L595.432 146.46C594.894 146.769 594.57 147.129 594.459 147.538C594.352 147.953 594.433 148.395 594.702 148.863C594.967 149.326 595.305 149.612 595.715 149.723C596.128 149.84 596.603 149.743 597.14 149.434L600.964 147.237L601.417 148.026L597.602 150.218C597.1 150.507 596.617 150.65 596.153 150.647C595.696 150.641 595.284 150.513 594.917 150.262C594.554 150.017 594.249 149.681 594.003 149.253C593.757 148.826 593.619 148.39 593.587 147.947C593.559 147.51 593.657 147.092 593.882 146.694C594.116 146.298 594.484 145.955 594.987 145.666L598.802 143.474L599.255 144.263ZM597.959 155.997L599.603 153.138L599.055 152.184L596.584 153.604L596.13 152.815L602.174 149.343L603.295 151.293C603.557 151.75 603.7 152.179 603.723 152.581C603.75 152.989 603.675 153.347 603.499 153.656C603.323 153.965 603.064 154.217 602.723 154.413C602.307 154.652 601.87 154.742 601.413 154.682C600.958 154.627 600.542 154.39 600.162 153.97L598.502 156.942L597.959 155.997ZM599.688 151.821L600.355 152.982C600.601 153.41 600.89 153.671 601.221 153.765C601.557 153.856 601.902 153.801 602.255 153.598C602.613 153.392 602.829 153.126 602.903 152.799C602.98 152.478 602.894 152.101 602.644 151.667L601.977 150.505L599.688 151.821ZM606.345 158.087L604.325 159.248L605.59 161.45L604.94 161.824L603.674 159.622L601.593 160.817L603.008 163.28L602.358 163.653L600.49 160.402L606.542 156.924L608.41 160.176L607.76 160.549L606.345 158.087ZM607.481 165.585L605.53 169.174L605.017 168.281L606.543 165.478L603.393 165.454L602.89 164.578L606.968 164.691L608.928 161.097L609.436 161.982L607.906 164.798L611.07 164.826L611.578 165.71L607.481 165.585ZM612.735 171.817C612.232 172.106 611.713 172.173 611.178 172.019C610.653 171.867 610.188 171.439 609.782 170.734L609.115 169.572L606.592 171.021L606.138 170.232L612.182 166.76L613.303 168.711C613.695 169.393 613.827 170.005 613.7 170.547C613.577 171.095 613.255 171.518 612.735 171.817ZM610.433 170.36C610.685 170.799 610.967 171.068 611.277 171.167C611.587 171.265 611.919 171.213 612.271 171.01C613.017 170.582 613.144 169.94 612.652 169.084L611.985 167.923L609.765 169.198L610.433 170.36ZM614.879 172.939L612.858 174.1L614.124 176.302L613.474 176.676L612.208 174.473L610.127 175.669L611.542 178.131L610.892 178.505L609.023 175.254L615.076 171.776L616.944 175.028L616.294 175.401L614.879 172.939ZM613.406 182.881L615.05 180.022L614.502 179.068L612.031 180.488L611.578 179.699L617.621 176.226L618.742 178.177C619.005 178.634 619.147 179.063 619.171 179.465C619.197 179.873 619.122 180.231 618.946 180.54C618.77 180.849 618.511 181.101 618.17 181.297C617.754 181.536 617.317 181.626 616.86 181.565C616.406 181.511 615.989 181.274 615.609 180.854L613.949 183.826L613.406 182.881ZM615.135 178.704L615.803 179.866C616.049 180.294 616.337 180.555 616.668 180.649C617.005 180.74 617.349 180.684 617.702 180.482C618.06 180.276 618.276 180.01 618.35 179.683C618.427 179.362 618.341 178.984 618.092 178.551L617.424 177.389L615.135 178.704ZM622.79 185.221L622.148 185.59L621.201 183.943L615.8 187.046L615.346 186.257L620.748 183.153L619.796 181.497L620.438 181.129L622.79 185.221ZM623.801 186.982L617.758 190.454L617.304 189.665L623.348 186.192L623.801 186.982ZM619.571 193.75C619.342 193.351 619.205 192.953 619.161 192.555C619.126 192.16 619.182 191.801 619.327 191.479C619.478 191.154 619.717 190.894 620.043 190.699L620.527 191.54C620.26 191.731 620.087 191.985 620.006 192.3C619.935 192.618 620.012 192.973 620.238 193.366C620.454 193.742 620.716 193.984 621.024 194.091C621.341 194.201 621.647 194.172 621.942 194.002C622.173 193.869 622.324 193.698 622.396 193.488C622.467 193.277 622.486 193.055 622.451 192.821C622.417 192.587 622.35 192.284 622.25 191.91C622.125 191.452 622.045 191.071 622.01 190.768C621.977 190.472 622.021 190.173 622.141 189.874C622.27 189.577 622.523 189.32 622.899 189.104C623.228 188.915 623.568 188.831 623.919 188.852C624.269 188.874 624.601 188.995 624.912 189.216C625.227 189.443 625.497 189.753 625.723 190.146C626.048 190.712 626.172 191.256 626.095 191.777C626.021 192.304 625.763 192.725 625.322 193.04L624.824 192.173C625.038 192.011 625.171 191.774 625.221 191.46C625.278 191.143 625.204 190.809 625.002 190.456C624.812 190.127 624.571 189.908 624.278 189.799C623.991 189.687 623.694 189.72 623.388 189.896C623.168 190.022 623.024 190.186 622.955 190.387C622.889 190.594 622.87 190.808 622.898 191.031C622.935 191.255 623.002 191.559 623.099 191.942C623.218 192.404 623.293 192.788 623.322 193.093C623.358 193.396 623.313 193.699 623.187 194.002C623.067 194.301 622.816 194.561 622.435 194.78C622.14 194.949 621.818 195.031 621.468 195.024C621.118 195.018 620.774 194.908 620.436 194.694C620.098 194.481 619.81 194.166 619.571 193.75ZM627.31 194.573L625.289 195.734L626.555 197.936L625.904 198.31L624.639 196.107L622.558 197.303L623.973 199.765L623.323 200.139L621.454 196.888L627.506 193.41L629.375 196.662L628.724 197.035L627.31 194.573ZM625.569 201.52L622.679 201.889L622.375 201.36L625.071 200.653L625.569 201.52ZM633.449 203.772C633.828 204.431 634.031 205.072 634.058 205.695C634.094 206.32 633.957 206.891 633.646 207.407C633.339 207.93 632.876 208.369 632.258 208.724C631.639 209.08 631.027 209.259 630.421 209.261C629.824 209.266 629.264 209.095 628.743 208.749C628.23 208.405 627.784 207.904 627.406 207.245L626.325 205.363L632.368 201.891L633.449 203.772ZM628.056 206.871C628.504 207.652 629.052 208.129 629.698 208.304C630.35 208.475 631.049 208.346 631.794 207.918C632.546 207.486 633.013 206.941 633.196 206.282C633.382 205.629 633.253 204.916 632.807 204.141L632.18 203.049L627.428 205.779L628.056 206.871ZM635.702 209.179L633.682 210.34L634.947 212.542L634.297 212.916L633.032 210.714L630.951 211.909L632.366 214.372L631.715 214.745L629.847 211.494L635.899 208.016L637.767 211.268L637.117 211.641L635.702 209.179ZM633.496 216.36L634.712 218.475L634.07 218.844L632.401 215.939L638.445 212.467L638.898 213.256L633.496 216.36ZM641.049 216.998L635.005 220.471L634.552 219.682L640.595 216.209L641.049 216.998ZM644.691 223.337L637.337 224.529L636.814 223.619L641.547 217.866L642.031 218.707L637.911 223.6L644.213 222.505L644.691 223.337ZM645 225.36L642.98 226.521L644.245 228.723L643.595 229.097L642.329 226.895L640.248 228.09L641.663 230.553L641.013 230.926L639.145 227.675L645.197 224.197L647.065 227.449L646.415 227.823L645 225.36ZM643.527 235.302L645.172 232.443L644.623 231.489L642.152 232.909L641.699 232.12L647.742 228.648L648.863 230.599C649.126 231.055 649.269 231.485 649.292 231.886C649.318 232.294 649.244 232.652 649.067 232.961C648.891 233.27 648.633 233.522 648.292 233.718C647.875 233.957 647.439 234.047 646.981 233.987C646.527 233.933 646.11 233.695 645.73 233.275L644.07 236.247L643.527 235.302ZM645.256 231.126L645.924 232.288C646.17 232.715 646.458 232.976 646.789 233.071C647.126 233.162 647.471 233.106 647.823 232.903C648.182 232.697 648.398 232.431 648.471 232.104C648.548 231.783 648.462 231.406 648.213 230.972L647.545 229.81L645.256 231.126ZM650.585 235.081L648.565 236.241L649.83 238.444L649.18 238.817L647.915 236.615L645.834 237.811L647.249 240.273L646.598 240.647L644.73 237.395L650.782 233.918L652.65 237.169L652 237.543L650.585 235.081ZM654.409 240.25C654.788 240.909 654.99 241.55 655.018 242.172C655.054 242.797 654.917 243.368 654.606 243.885C654.299 244.407 653.836 244.846 653.218 245.202C652.599 245.557 651.987 245.736 651.381 245.738C650.784 245.743 650.224 245.572 649.702 245.226C649.19 244.883 648.744 244.381 648.366 243.722L647.284 241.841L653.328 238.368L654.409 240.25ZM649.016 243.349C649.464 244.129 650.012 244.607 650.658 244.781C651.31 244.952 652.009 244.824 652.754 244.395C653.506 243.964 653.973 243.418 654.156 242.76C654.342 242.107 654.212 241.393 653.767 240.618L653.14 239.526L648.388 242.256L649.016 243.349ZM658.632 247.599L652.589 251.072L652.135 250.283L658.179 246.81L658.632 247.599ZM656.091 257.168L655.638 256.379L658.627 250.441L653.815 253.206L653.361 252.417L659.413 248.939L659.867 249.728L656.887 255.662L661.69 252.901L662.143 253.691L656.091 257.168ZM666.373 261.072L665.732 261.44L664.785 259.793L659.383 262.897L658.93 262.108L664.332 259.004L663.38 257.348L664.022 256.979L666.373 261.072ZM669.607 266.699L663.563 270.172L663.11 269.383L665.85 267.808L664.081 264.73L661.341 266.305L660.888 265.516L666.931 262.043L667.385 262.832L664.731 264.357L666.5 267.435L669.153 265.91L669.607 266.699ZM670.193 269.204L668.172 270.365L669.438 272.567L668.787 272.941L667.522 270.739L665.441 271.934L666.856 274.397L666.206 274.77L664.337 271.519L670.389 268.041L672.258 271.293L671.607 271.667L670.193 269.204ZM678.628 282.399L671.578 284.12L671.07 283.235L675.127 279.036L669.426 280.374L668.914 279.503L673.994 274.335L674.478 275.176L670.11 279.438L676.072 277.951L676.58 278.835L672.27 283.157L678.139 281.549L678.628 282.399ZM676.477 289.535L674.962 286.899L673.339 287.186L672.861 286.353L680.125 285.086L680.648 285.996L675.89 291.625L675.412 290.793L676.477 289.535ZM676.989 288.941L679.413 286.094L675.734 286.756L676.989 288.941ZM684.912 293.336L680.018 293.53L677.738 294.84L677.284 294.051L679.565 292.741L682.192 288.602L682.695 289.478L680.491 292.728L684.409 292.46L684.912 293.336ZM689.15 300.711L684.256 300.905L681.975 302.215L681.522 301.426L683.802 300.116L686.43 295.977L686.933 296.853L684.729 300.103L688.647 299.835L689.15 300.711ZM685.098 307.791C684.776 307.23 684.612 306.644 684.607 306.032C684.607 305.416 684.763 304.838 685.075 304.298C685.396 303.759 685.852 303.321 686.441 302.982C687.031 302.643 687.636 302.472 688.257 302.469C688.887 302.469 689.465 302.625 689.991 302.938C690.523 303.247 690.95 303.683 691.272 304.243C691.597 304.81 691.76 305.401 691.76 306.016C691.765 306.628 691.61 307.201 691.295 307.736C690.979 308.271 690.524 308.709 689.929 309.052C689.333 309.394 688.725 309.566 688.104 309.569C687.483 309.573 686.907 309.419 686.375 309.11C685.849 308.797 685.424 308.357 685.098 307.791ZM685.783 307.397C686.026 307.819 686.341 308.141 686.731 308.363C687.123 308.591 687.556 308.696 688.03 308.678C688.507 308.665 688.986 308.521 689.465 308.245C689.951 307.966 690.316 307.625 690.562 307.223C690.816 306.823 690.946 306.399 690.95 305.951C690.953 305.503 690.832 305.065 690.587 304.637C690.341 304.209 690.023 303.884 689.634 303.662C689.245 303.439 688.812 303.335 688.335 303.347C687.867 303.362 687.39 303.51 686.905 303.789C686.425 304.064 686.058 304.402 685.803 304.802C685.552 305.208 685.424 305.635 685.42 306.083C685.42 306.537 685.541 306.975 685.783 307.397ZM693.988 309.131L690.164 311.328C689.627 311.637 689.303 311.996 689.192 312.406C689.085 312.821 689.165 313.263 689.434 313.731C689.7 314.194 690.038 314.48 690.447 314.591C690.86 314.707 691.336 314.611 691.873 314.302L695.697 312.105L696.15 312.894L692.335 315.086C691.832 315.375 691.349 315.518 690.886 315.515C690.429 315.509 690.017 315.38 689.65 315.13C689.286 314.885 688.982 314.549 688.736 314.121C688.49 313.693 688.351 313.258 688.32 312.815C688.291 312.377 688.39 311.96 688.614 311.561C688.848 311.166 689.217 310.823 689.72 310.534L693.535 308.342L693.988 309.131ZM694.922 324.746L694.468 323.957L697.457 318.018L692.645 320.784L692.191 319.994L698.243 316.517L698.697 317.306L695.717 323.24L700.52 320.479L700.974 321.268L694.922 324.746ZM701.55 323.776L699.529 324.937L700.795 327.139L700.144 327.513L698.879 325.311L696.798 326.506L698.213 328.969L697.563 329.342L695.694 326.091L701.746 322.613L703.615 325.865L702.964 326.239L701.55 323.776ZM704.104 328.222L702.084 329.382L703.349 331.585L702.699 331.958L701.433 329.756L699.352 330.952L700.767 333.414L700.117 333.788L698.249 330.536L704.301 327.059L706.169 330.31L705.519 330.684L704.104 328.222ZM707.927 333.391C708.306 334.05 708.509 334.69 708.536 335.313C708.572 335.938 708.435 336.509 708.125 337.026C707.817 337.548 707.355 337.987 706.736 338.343C706.118 338.698 705.505 338.877 704.899 338.879C704.302 338.884 703.743 338.713 703.221 338.367C702.708 338.023 702.263 337.522 701.884 336.863L700.803 334.982L706.846 331.509L707.927 333.391ZM702.534 336.49C702.983 337.27 703.53 337.747 704.176 337.922C704.828 338.093 705.527 337.965 706.273 337.536C707.024 337.104 707.491 336.559 707.674 335.901C707.86 335.248 707.731 334.534 707.286 333.759L706.658 332.667L701.907 335.397L702.534 336.49ZM712.15 340.74L706.107 344.213L705.654 343.424L711.697 339.951L712.15 340.74ZM715.06 345.805L714.419 346.173L713.472 344.526L708.07 347.63L707.617 346.841L713.019 343.737L712.067 342.081L712.709 341.712L715.06 345.805Z" fill="black"/>
</g>
<defs>
<clipPath id="clip0_1_2">
<rect width="763" height="452" fill="white"/>
</clipPath>
</defs>
</svg>
