<svg width="763" height="270" viewBox="0 0 763 270" fill="none" xmlns="http://www.w3.org/2000/svg">
<rect x="258" width="113" height="269" fill="black"/>
<rect x="402" y="1" width="113" height="269" fill="black"/>
<path d="M-9 154.5C52.6667 154.5 221.5 154.5 249 154.5C276.5 154.5 291.746 139.846 291 119C290.254 98.1541 279.5 86 249 86H230.5" stroke="black" stroke-width="21"/>
<path d="M213 75.5V135.5" stroke="black" stroke-width="21"/>
<path d="M322 162.564V86H378.5" stroke="black" stroke-width="21"/>
<path d="M340 120H368" stroke="black" stroke-width="15"/>
<path d="M340 151H381.5" stroke="black" stroke-width="21"/>
<path d="M424.5 164L386 75H419.5V95.4244C419.5 98.9791 428.5 98.9791 428.5 95.4244V75H462L424.5 164Z" fill="black"/>
<path d="M468 74.8644L493.5 74.8644L559.369 150.044L545.479 162.683L468 74.8644Z" fill="black"/>
<path d="M769.512 82.3291L553.893 77.6006C546.164 77.4311 538.867 81.1561 534.47 87.5154L485.512 158.329" stroke="black" stroke-width="15"/>
</svg>
