<svg width="43" height="54" viewBox="0 0 43 54" fill="none" xmlns="http://www.w3.org/2000/svg">
<path d="M42.5 11.2313C42.5 17.1616 37.7292 21.9627 31.8519 21.9627C25.9745 21.9627 21.2037 17.1616 21.2037 11.2313C21.2037 5.30107 25.9745 0.5 31.8519 0.5C37.7292 0.5 42.5 5.30107 42.5 11.2313Z" stroke="#BFBFBF"/>
<path d="M8.25926 26.875C8.25926 29.0392 6.51879 30.7873 4.37963 30.7873C2.24047 30.7873 0.5 29.0392 0.5 26.875C0.5 24.7108 2.24047 22.9627 4.37963 22.9627C6.51879 22.9627 8.25926 24.7108 8.25926 26.875Z" stroke="#BFBFBF"/>
<path d="M31.3519 45.7276C31.3519 49.8856 28.0071 53.25 23.8889 53.25C19.7707 53.25 16.4259 49.8856 16.4259 45.7276C16.4259 41.5696 19.7707 38.2052 23.8889 38.2052C28.0071 38.2052 31.3519 41.5696 31.3519 45.7276Z" stroke="#BFBFBF"/>
</svg>
