<svg width="763" height="452" viewBox="0 0 763 452" fill="none" xmlns="http://www.w3.org/2000/svg">
<g clip-path="url(#clip0_1_2)">
<path d="M542.705 81.896L353.169 454.829C350.803 459.485 354.186 465 359.41 465H750.753C756.056 465 759.433 459.333 756.909 454.669L555.102 81.7361C552.416 76.7726 545.262 76.8649 542.705 81.896Z" fill="black"/>
<path d="M592.352 129.854C592.035 129.29 591.876 128.702 591.876 128.091C591.882 127.475 592.043 126.899 592.36 126.361C592.686 125.826 593.146 125.391 593.738 125.058C594.331 124.724 594.938 124.559 595.559 124.561C596.189 124.566 596.765 124.727 597.288 125.045C597.817 125.36 598.24 125.799 598.557 126.362C598.878 126.931 599.035 127.524 599.029 128.139C599.029 128.751 598.869 129.323 598.549 129.855C598.229 130.387 597.77 130.821 597.171 131.158C596.573 131.495 595.963 131.662 595.342 131.66C594.721 131.657 594.146 131.499 593.617 131.184C593.094 130.867 592.673 130.423 592.352 129.854ZM593.041 129.466C593.279 129.89 593.592 130.215 593.979 130.441C594.37 130.673 594.802 130.782 595.276 130.767C595.753 130.759 596.233 130.619 596.715 130.348C597.203 130.073 597.572 129.736 597.821 129.335C598.079 128.938 598.212 128.515 598.22 128.067C598.228 127.618 598.111 127.179 597.869 126.749C597.627 126.32 597.312 125.992 596.925 125.766C596.538 125.54 596.106 125.431 595.629 125.44C595.161 125.451 594.682 125.594 594.194 125.868C593.712 126.14 593.342 126.474 593.084 126.872C592.829 127.275 592.698 127.701 592.69 128.149C592.685 128.603 592.802 129.042 593.041 129.466ZM601.23 131.274L597.386 133.437C596.846 133.741 596.519 134.097 596.404 134.506C596.293 134.92 596.37 135.363 596.635 135.833C596.897 136.298 597.232 136.588 597.64 136.702C598.052 136.822 598.528 136.73 599.068 136.426L602.912 134.263L603.358 135.056L599.523 137.214C599.018 137.499 598.534 137.637 598.071 137.63C597.613 137.62 597.202 137.487 596.838 137.234C596.476 136.986 596.175 136.647 595.933 136.217C595.691 135.787 595.556 135.35 595.528 134.907C595.504 134.469 595.606 134.052 595.834 133.656C596.072 133.262 596.443 132.923 596.949 132.639L600.783 130.481L601.23 131.274ZM599.828 142.996L601.498 140.152L600.958 139.193L598.474 140.591L598.028 139.798L604.102 136.379L605.206 138.34C605.464 138.799 605.603 139.23 605.623 139.632C605.646 140.04 605.568 140.397 605.389 140.704C605.21 141.012 604.949 141.262 604.606 141.455C604.188 141.69 603.75 141.776 603.293 141.711C602.84 141.653 602.425 141.412 602.049 140.989L600.362 143.946L599.828 142.996ZM601.594 138.835L602.251 140.003C602.493 140.433 602.779 140.696 603.11 140.794C603.445 140.888 603.791 140.835 604.145 140.635C604.505 140.433 604.724 140.168 604.8 139.842C604.88 139.522 604.797 139.144 604.552 138.708L603.895 137.54L601.594 138.835ZM608.195 145.161L606.164 146.304L607.41 148.517L606.756 148.885L605.511 146.671L603.419 147.848L604.812 150.323L604.158 150.691L602.319 147.423L608.402 144L610.241 147.268L609.588 147.636L608.195 145.161ZM614.331 154.659L608.301 158.053L607.854 157.26L612.351 154.729L606.726 155.255L606.413 154.697L609.785 150.149L605.28 152.684L604.833 151.891L610.864 148.498L611.345 149.352L607.615 154.388L613.856 153.814L614.331 154.659ZM615.639 161.041C615.134 161.326 614.614 161.388 614.081 161.229C613.557 161.073 613.096 160.64 612.697 159.931L612.04 158.764L609.504 160.191L609.057 159.398L615.132 155.979L616.235 157.94C616.621 158.626 616.748 159.239 616.616 159.78C616.488 160.326 616.162 160.747 615.639 161.041ZM613.351 159.564C613.599 160.005 613.878 160.277 614.187 160.378C614.497 160.479 614.829 160.43 615.183 160.231C615.933 159.809 616.065 159.168 615.582 158.308L614.924 157.14L612.693 158.396L613.351 159.564ZM617.773 162.182L615.742 163.325L616.988 165.539L616.334 165.906L615.089 163.693L612.997 164.87L614.39 167.345L613.736 167.713L611.897 164.444L617.98 161.021L619.819 164.29L619.166 164.657L617.773 162.182ZM616.211 172.111L617.881 169.267L617.342 168.308L614.858 169.706L614.412 168.913L620.486 165.494L621.589 167.455C621.848 167.914 621.987 168.345 622.006 168.747C622.029 169.155 621.951 169.512 621.772 169.819C621.593 170.127 621.332 170.377 620.99 170.57C620.571 170.805 620.134 170.891 619.677 170.826C619.223 170.768 618.808 170.527 618.433 170.104L616.746 173.061L616.211 172.111ZM617.978 167.95L618.635 169.118C618.877 169.548 619.163 169.811 619.493 169.909C619.829 170.003 620.174 169.95 620.529 169.75C620.889 169.548 621.107 169.283 621.184 168.957C621.264 168.637 621.181 168.259 620.936 167.823L620.279 166.655L617.978 167.95ZM623.916 171.59L617.842 175.008L617.395 174.215L623.47 170.797L623.916 171.59ZM624.478 174.097L622.447 175.24L623.693 177.453L623.039 177.821L621.794 175.608L619.702 176.785L621.095 179.26L620.441 179.628L618.602 176.359L624.685 172.936L626.524 176.204L625.871 176.572L624.478 174.097ZM622.139 182.788C621.914 182.387 621.781 181.988 621.74 181.589C621.709 181.194 621.768 180.836 621.916 180.515C622.07 180.191 622.311 179.933 622.639 179.741L623.115 180.586C622.847 180.776 622.671 181.028 622.588 181.342C622.514 181.659 622.588 182.015 622.81 182.41C623.023 182.788 623.282 183.032 623.589 183.142C623.905 183.255 624.211 183.228 624.508 183.061C624.74 182.931 624.893 182.761 624.966 182.551C625.04 182.341 625.06 182.12 625.028 181.885C624.995 181.651 624.931 181.347 624.835 180.972C624.714 180.513 624.637 180.131 624.605 179.828C624.575 179.531 624.622 179.234 624.745 178.935C624.876 178.639 625.131 178.385 625.509 178.172C625.84 177.986 626.181 177.905 626.531 177.93C626.882 177.954 627.212 178.078 627.521 178.302C627.834 178.532 628.101 178.844 628.324 179.239C628.644 179.808 628.763 180.353 628.681 180.874C628.602 181.4 628.341 181.819 627.896 182.13L627.406 181.258C627.622 181.099 627.757 180.862 627.81 180.549C627.869 180.233 627.799 179.897 627.6 179.543C627.413 179.212 627.174 178.991 626.882 178.88C626.596 178.765 626.299 178.795 625.991 178.968C625.77 179.092 625.624 179.255 625.554 179.455C625.486 179.661 625.465 179.876 625.491 180.098C625.526 180.324 625.59 180.628 625.684 181.011C625.799 181.474 625.87 181.859 625.897 182.165C625.929 182.468 625.882 182.77 625.753 183.072C625.63 183.371 625.377 183.628 624.994 183.844C624.698 184.01 624.375 184.089 624.025 184.079C623.675 184.069 623.332 183.956 622.996 183.74C622.66 183.524 622.375 183.206 622.139 182.788ZM625.554 186.144L622.66 186.487L622.361 185.955L625.063 185.272L625.554 186.144ZM633.413 188.467C633.786 189.129 633.983 189.771 634.004 190.394C634.035 191.02 633.893 191.589 633.577 192.103C633.266 192.623 632.799 193.058 632.177 193.407C631.555 193.757 630.942 193.931 630.335 193.927C629.738 193.927 629.181 193.751 628.662 193.4C628.152 193.052 627.711 192.547 627.339 191.885L626.274 189.994L632.349 186.575L633.413 188.467ZM627.992 191.517C628.433 192.301 628.976 192.784 629.621 192.964C630.272 193.141 630.972 193.019 631.721 192.597C632.476 192.172 632.948 191.631 633.137 190.974C633.329 190.323 633.206 189.608 632.768 188.829L632.15 187.731L627.374 190.419L627.992 191.517ZM635.617 193.893L633.587 195.036L634.832 197.249L634.179 197.617L632.933 195.404L630.842 196.581L632.234 199.056L631.581 199.423L629.742 196.155L635.825 192.732L637.664 196L637.01 196.368L635.617 193.893ZM633.347 201.054L634.544 203.18L633.899 203.543L632.256 200.623L638.33 197.205L638.777 197.998L633.347 201.054ZM640.893 201.76L634.819 205.178L634.373 204.385L640.447 200.967L640.893 201.76ZM644.479 208.131L637.115 209.258L636.6 208.342L641.384 202.632L641.86 203.478L637.696 208.334L644.008 207.295L644.479 208.131ZM644.769 210.157L642.739 211.3L643.984 213.513L643.331 213.881L642.085 211.667L639.994 212.844L641.386 215.319L640.733 215.687L638.894 212.419L644.977 208.996L646.816 212.264L646.162 212.632L644.769 210.157ZM643.208 220.086L644.877 217.241L644.338 216.283L641.854 217.68L641.408 216.887L647.482 213.469L648.586 215.43C648.844 215.889 648.983 216.319 649.003 216.722C649.026 217.129 648.948 217.487 648.769 217.794C648.59 218.101 648.329 218.351 647.986 218.544C647.568 218.78 647.13 218.865 646.673 218.801C646.22 218.743 645.805 218.502 645.429 218.078L643.742 221.036L643.208 220.086ZM644.974 215.925L645.631 217.092C645.873 217.522 646.159 217.786 646.489 217.883C646.825 217.977 647.171 217.925 647.525 217.725C647.885 217.522 648.104 217.258 648.18 216.932C648.26 216.612 648.177 216.234 647.932 215.798L647.275 214.63L644.974 215.925ZM650.267 219.927L648.237 221.07L649.482 223.284L648.829 223.651L647.583 221.438L645.491 222.615L646.884 225.09L646.231 225.458L644.392 222.189L650.475 218.766L652.314 222.035L651.66 222.402L650.267 219.927ZM654.044 225.131C654.417 225.793 654.614 226.435 654.636 227.058C654.666 227.684 654.524 228.253 654.209 228.767C653.897 229.287 653.43 229.722 652.809 230.072C652.187 230.421 651.573 230.595 650.967 230.591C650.37 230.591 649.812 230.415 649.293 230.064C648.784 229.716 648.343 229.211 647.97 228.549L646.906 226.658L652.98 223.239L654.044 225.131ZM648.624 228.181C649.065 228.965 649.608 229.448 650.253 229.628C650.903 229.805 651.603 229.683 652.353 229.261C653.108 228.836 653.58 228.295 653.769 227.638C653.961 226.987 653.838 226.272 653.399 225.493L652.782 224.395L648.006 227.083L648.624 228.181ZM658.201 232.518L652.127 235.936L651.681 235.143L657.755 231.725L658.201 232.518ZM655.575 242.063L655.129 241.27L658.171 235.359L653.334 238.08L652.887 237.287L658.971 233.864L659.417 234.657L656.384 240.564L661.212 237.847L661.658 238.64L655.575 242.063ZM665.821 246.059L665.176 246.422L664.245 244.766L658.815 247.821L658.369 247.028L663.798 243.973L662.862 242.309L663.507 241.946L665.821 246.059ZM669.004 251.715L662.93 255.133L662.483 254.34L665.237 252.791L663.496 249.697L660.743 251.246L660.296 250.453L666.371 247.035L666.817 247.828L664.15 249.329L665.891 252.423L668.558 250.922L669.004 251.715ZM669.567 254.225L667.537 255.368L668.782 257.582L668.129 257.949L666.883 255.736L664.792 256.913L666.184 259.388L665.531 259.756L663.692 256.487L669.775 253.064L671.614 256.333L670.96 256.7L669.567 254.225ZM677.884 267.495L670.819 269.153L670.319 268.264L674.413 264.101L668.7 265.388L668.196 264.513L673.323 259.39L673.799 260.236L669.394 264.459L675.368 263.024L675.868 263.913L671.52 268.196L677.403 266.641L677.884 267.495ZM675.669 274.612L674.178 271.962L672.553 272.234L672.082 271.398L679.357 270.195L679.872 271.11L675.064 276.696L674.593 275.86L675.669 274.612ZM676.186 274.022L678.636 271.198L674.951 271.826L676.186 274.022ZM684.07 278.488L679.174 278.638L676.882 279.928L676.436 279.135L678.728 277.845L681.392 273.73L681.887 274.61L679.655 277.84L683.574 277.608L684.07 278.488ZM688.241 285.901L683.346 286.051L681.054 287.341L680.607 286.548L682.899 285.258L685.563 281.143L686.059 282.023L683.826 285.253L687.746 285.021L688.241 285.901ZM684.126 292.944C683.809 292.38 683.65 291.793 683.65 291.181C683.656 290.566 683.817 289.989 684.134 289.451C684.46 288.916 684.92 288.481 685.512 288.148C686.105 287.814 686.712 287.649 687.333 287.651C687.963 287.656 688.539 287.818 689.062 288.135C689.591 288.45 690.014 288.889 690.331 289.452C690.652 290.022 690.809 290.614 690.803 291.229C690.803 291.841 690.643 292.413 690.323 292.945C690.003 293.477 689.544 293.912 688.945 294.248C688.347 294.585 687.737 294.752 687.116 294.75C686.495 294.747 685.92 294.589 685.391 294.275C684.868 293.957 684.447 293.513 684.126 292.944ZM684.815 292.557C685.053 292.981 685.366 293.306 685.753 293.532C686.144 293.763 686.576 293.872 687.05 293.858C687.527 293.849 688.007 293.709 688.489 293.438C688.977 293.163 689.346 292.826 689.595 292.426C689.853 292.028 689.986 291.605 689.994 291.157C690.002 290.709 689.885 290.27 689.643 289.84C689.401 289.41 689.086 289.082 688.699 288.856C688.312 288.63 687.88 288.522 687.403 288.53C686.934 288.541 686.456 288.684 685.968 288.958C685.486 289.23 685.116 289.564 684.858 289.962C684.603 290.366 684.472 290.791 684.464 291.239C684.459 291.693 684.576 292.132 684.815 292.557ZM693.004 294.364L689.16 296.527C688.62 296.831 688.293 297.187 688.178 297.596C688.067 298.01 688.144 298.453 688.409 298.923C688.67 299.388 689.006 299.678 689.414 299.792C689.826 299.912 690.302 299.82 690.842 299.516L694.686 297.354L695.132 298.147L691.297 300.304C690.792 300.589 690.308 300.727 689.845 300.72C689.387 300.71 688.976 300.578 688.612 300.324C688.25 300.076 687.949 299.737 687.707 299.307C687.465 298.877 687.33 298.44 687.302 297.997C687.278 297.559 687.38 297.143 687.608 296.746C687.846 296.353 688.217 296.014 688.723 295.729L692.557 293.571L693.004 294.364ZM693.797 309.987L693.351 309.194L696.393 303.282L691.556 306.004L691.109 305.211L697.192 301.788L697.639 302.581L694.606 308.488L699.434 305.771L699.88 306.564L693.797 309.987ZM700.433 309.077L698.403 310.219L699.648 312.433L698.995 312.801L697.749 310.587L695.658 311.764L697.05 314.239L696.397 314.607L694.558 311.339L700.641 307.916L702.48 311.184L701.826 311.552L700.433 309.077ZM702.948 313.545L700.917 314.687L702.163 316.901L701.509 317.269L700.263 315.055L698.172 316.232L699.565 318.707L698.911 319.075L697.072 315.807L703.155 312.384L704.994 315.652L704.34 316.02L702.948 313.545ZM706.725 318.748C707.097 319.41 707.295 320.053 707.316 320.676C707.347 321.301 707.204 321.871 706.889 322.385C706.577 322.904 706.111 323.339 705.489 323.689C704.867 324.039 704.253 324.212 703.647 324.209C703.05 324.208 702.492 324.033 701.974 323.682C701.464 323.334 701.023 322.829 700.65 322.166L699.586 320.275L705.661 316.857L706.725 318.748ZM701.304 321.798C701.745 322.583 702.288 323.065 702.933 323.245C703.583 323.423 704.283 323.3 705.033 322.879C705.788 322.454 706.26 321.913 706.449 321.256C706.641 320.604 706.518 319.89 706.08 319.111L705.462 318.013L700.686 320.7L701.304 321.798ZM710.882 326.135L704.807 329.553L704.361 328.76L710.435 325.342L710.882 326.135ZM713.746 331.225L713.101 331.588L712.169 329.933L706.74 332.988L706.294 332.195L711.723 329.139L710.786 327.475L711.431 327.112L713.746 331.225Z" fill="black"/>
</g>
<defs>
<clipPath id="clip0_1_2">
<rect width="763" height="452" fill="white"/>
</clipPath>
</defs>
</svg>
