<svg width="763" height="270" viewBox="0 0 763 270" fill="none" xmlns="http://www.w3.org/2000/svg">
<path d="M522 203V270" stroke="#9B9B9B" stroke-width="0.9"/>
<path d="M529 223L529 270" stroke="#9B9B9B" stroke-width="0.9"/>
<path d="M537 237L537 270" stroke="#9B9B9B" stroke-width="0.9"/>
<path d="M545 254L545 270" stroke="#9B9B9B" stroke-width="0.9"/>
<path d="M227.5 12.1897C227.5 18.0953 222.731 22.8795 216.852 22.8795C210.973 22.8795 206.204 18.0953 206.204 12.1897C206.204 6.2842 210.973 1.5 216.852 1.5C222.731 1.5 227.5 6.2842 227.5 12.1897Z" stroke="#BFBFBF"/>
<path d="M582.796 174.19C582.796 180.095 578.027 184.879 572.148 184.879C566.269 184.879 561.5 180.095 561.5 174.19C561.5 168.284 566.269 163.5 572.148 163.5C578.027 163.5 582.796 168.284 582.796 174.19Z" stroke="#BFBFBF"/>
<circle cx="589.5" cy="189.5" r="6" stroke="#BFBFBF"/>
<path d="M107.796 220.19C107.796 226.095 103.027 230.879 97.1481 230.879C91.2691 230.879 86.5 226.095 86.5 220.19C86.5 214.284 91.2691 209.5 97.1481 209.5C103.027 209.5 107.796 214.284 107.796 220.19Z" stroke="#BFBFBF"/>
<circle cx="111.5" cy="202.5" r="6" stroke="#BFBFBF"/>
<circle cx="114" cy="217" r="2.5" stroke="#BFBFBF"/>
<path d="M195.259 25.396C195.259 27.5494 193.521 29.2919 191.38 29.2919C189.239 29.2919 187.5 27.5494 187.5 25.396C187.5 23.2425 189.239 21.5 191.38 21.5C193.521 21.5 195.259 23.2425 195.259 25.396Z" stroke="#BFBFBF"/>
<path d="M215.426 39.9927C215.426 44.1325 212.083 47.4854 207.963 47.4854C203.843 47.4854 200.5 44.1325 200.5 39.9927C200.5 35.8528 203.843 32.5 207.963 32.5C212.083 32.5 215.426 35.8528 215.426 39.9927Z" stroke="#BFBFBF"/>
<path d="M524.091 68.7481L527.897 65.6588C528.434 65.2225 528.376 64.3854 527.784 64.0269L524.278 61.9044C523.669 61.5357 523.629 60.6668 524.202 60.2442L527.761 57.6186C528.343 57.1888 528.29 56.3015 527.661 55.9442L524.46 54.128C523.801 53.754 523.782 52.8113 524.424 52.41L527.56 50.4527C528.206 50.0491 528.182 49.0997 527.516 48.73L524.091 46.8296" stroke="#7A7A7A" stroke-width="0.8"/>
<path d="M243.909 200.259L240.103 203.349C239.566 203.785 239.624 204.622 240.216 204.981L243.722 207.103C244.331 207.472 244.371 208.341 243.798 208.763L240.239 211.389C239.657 211.819 239.71 212.706 240.339 213.063L243.54 214.879C244.199 215.253 244.218 216.196 243.576 216.597L240.44 218.555C239.794 218.958 239.818 219.908 240.484 220.277L243.909 222.178" stroke="#7A7A7A" stroke-width="0.8"/>
<path d="M740 205.091L743.089 208.897C743.526 209.434 744.363 209.376 744.721 208.784L746.844 205.278C747.212 204.669 748.081 204.629 748.504 205.202L751.13 208.761C751.559 209.343 752.447 209.29 752.804 208.661L754.62 205.46C754.994 204.801 755.937 204.782 756.338 205.424L758.295 208.56C758.699 209.206 759.648 209.182 760.018 208.516L761.919 205.091" stroke="#7A7A7A" stroke-width="0.8"/>
<path d="M0 84.5L5 81L9 84.5L14 81L18 84.5L23 81L27 84.5L31.5 81L35.5 84.5L39.5 81L43.5 84.5" stroke="#AEAEAE" stroke-width="0.9"/>
<path d="M0 87.5L5 84L9 87.5L14 84L18 87.5L23 84L27 87.5L31.5 84L35.5 87.5L39.5 84L43.5 87.5" stroke="#AEAEAE" stroke-width="0.9"/>
<path d="M0 90.5L5 87L9 90.5L14 87L18 90.5L23 87L27 90.5L31.5 87L35.5 90.5L39.5 87L43.5 90.5" stroke="#AEAEAE" stroke-width="0.9"/>
<path d="M0 93.5L5 90L9 93.5L14 90L18 93.5L23 90L27 93.5L31.5 90L35.5 93.5L39.5 90L43.5 93.5" stroke="#AEAEAE" stroke-width="0.9"/>
<path d="M730.5 44.5L727 39.5L730.5 35.5L727 30.5L730.5 26.5L727 21.5L730.5 17.5L727 13L730.5 9L727 5L730.5 1" stroke="#707070" stroke-opacity="0.53" stroke-width="0.9"/>
<path d="M733.5 44.5L730 39.5L733.5 35.5L730 30.5L733.5 26.5L730 21.5L733.5 17.5L730 13L733.5 9L730 5L733.5 1" stroke="#707070" stroke-opacity="0.53" stroke-width="0.9"/>
<path d="M736.5 44.5L733 39.5L736.5 35.5L733 30.5L736.5 26.5L733 21.5L736.5 17.5L733 13L736.5 9L733 5L736.5 1" stroke="#707070" stroke-opacity="0.53" stroke-width="0.9"/>
<path d="M739.5 44.5L736 39.5L739.5 35.5L736 30.5L739.5 26.5L736 21.5L739.5 17.5L736 13L739.5 9L736 5L739.5 1" stroke="#707070" stroke-opacity="0.53" stroke-width="0.9"/>
</svg>
