<svg width="763" height="440" viewBox="0 0 763 440" fill="none" xmlns="http://www.w3.org/2000/svg">
<path d="M712 373V440" stroke="#9B9B9B" stroke-width="0.9"/>
<path d="M719 393L719 440" stroke="#9B9B9B" stroke-width="0.9"/>
<path d="M727 407L727 440" stroke="#9B9B9B" stroke-width="0.9"/>
<path d="M735 424L735 440" stroke="#9B9B9B" stroke-width="0.9"/>
<path d="M65.5 11.1897C65.5 17.0953 60.7309 21.8795 54.8519 21.8795C48.9728 21.8795 44.2037 17.0953 44.2037 11.1897C44.2037 5.2842 48.9728 0.5 54.8519 0.5C60.7309 0.5 65.5 5.2842 65.5 11.1897Z" stroke="#BFBFBF"/>
<path d="M734.796 23.1897C734.796 29.0953 730.027 33.8795 724.148 33.8795C718.269 33.8795 713.5 29.0953 713.5 23.1897C713.5 17.2842 718.269 12.5 724.148 12.5C730.027 12.5 734.796 17.2842 734.796 23.1897Z" stroke="#BFBFBF"/>
<circle cx="741.5" cy="38.5" r="6" stroke="#BFBFBF"/>
<path d="M45.7963 399.19C45.7963 405.095 41.0272 409.879 35.1481 409.879C29.2691 409.879 24.5 405.095 24.5 399.19C24.5 393.284 29.2691 388.5 35.1481 388.5C41.0272 388.5 45.7963 393.284 45.7963 399.19Z" stroke="#BFBFBF"/>
<circle cx="49.5" cy="381.5" r="6" stroke="#BFBFBF"/>
<circle cx="52" cy="396" r="2.5" stroke="#BFBFBF"/>
<path d="M33.2593 24.396C33.2593 26.5494 31.5205 28.2919 29.3796 28.2919C27.2387 28.2919 25.5 26.5494 25.5 24.396C25.5 22.2425 27.2387 20.5 29.3796 20.5C31.5205 20.5 33.2593 22.2425 33.2593 24.396Z" stroke="#BFBFBF"/>
<path d="M53.4259 38.9927C53.4259 43.1325 50.0829 46.4854 45.963 46.4854C41.843 46.4854 38.5 43.1325 38.5 38.9927C38.5 34.8528 41.843 31.5 45.963 31.5C50.0829 31.5 53.4259 34.8528 53.4259 38.9927Z" stroke="#BFBFBF"/>
<path d="M610.5 235.5L607 230.5L610.5 226.5L607 221.5L610.5 217.5L607 212.5L610.5 208.5L607 204L610.5 200L607 196L610.5 192" stroke="#707070" stroke-opacity="0.53" stroke-width="0.9"/>
<path d="M613.5 235.5L610 230.5L613.5 226.5L610 221.5L613.5 217.5L610 212.5L613.5 208.5L610 204L613.5 200L610 196L613.5 192" stroke="#707070" stroke-opacity="0.53" stroke-width="0.9"/>
<path d="M616.5 235.5L613 230.5L616.5 226.5L613 221.5L616.5 217.5L613 212.5L616.5 208.5L613 204L616.5 200L613 196L616.5 192" stroke="#707070" stroke-opacity="0.53" stroke-width="0.9"/>
<path d="M619.5 235.5L616 230.5L619.5 226.5L616 221.5L619.5 217.5L616 212.5L619.5 208.5L616 204L619.5 200L616 196L619.5 192" stroke="#707070" stroke-opacity="0.53" stroke-width="0.9"/>
</svg>
