<svg width="763" height="383" viewBox="0 0 763 383" fill="none" xmlns="http://www.w3.org/2000/svg">
<rect width="93" height="28" fill="#4285F4"/>
<rect y="39" width="93" height="28" fill="#4285F4"/>
<path d="M292.346 389.425L285.117 378.849L292.557 370.536L285.328 359.96L292.767 351.647L285.539 341.071L292.978 332.758L285.738 323.232L293.178 314.918L285.926 306.441L293.365 298.128" stroke="#AEAEAE" stroke-width="0.9"/>
<path d="M300.711 389.495L293.482 378.919L300.922 370.606L293.693 360.03L301.132 351.717L293.904 341.141L301.343 332.828L294.103 323.302L301.542 314.989L294.29 306.512L301.73 298.198" stroke="#AEAEAE" stroke-width="0.9"/>
<path d="M309.076 389.566L301.847 378.99L309.286 370.677L302.058 360.101L309.497 351.788L302.269 341.212L309.708 332.899L302.468 323.372L309.907 315.059L302.655 306.582L310.095 298.269" stroke="#AEAEAE" stroke-width="0.9"/>
<path d="M741 231.091L744.089 234.897C744.526 235.434 745.363 235.376 745.721 234.784L747.844 231.278C748.212 230.669 749.081 230.629 749.504 231.202L752.13 234.761C752.559 235.343 753.447 235.29 753.804 234.661L755.62 231.46C755.994 230.801 756.937 230.782 757.338 231.424L759.295 234.56C759.699 235.206 760.648 235.182 761.018 234.516L762.919 231.091" stroke="#7A7A7A" stroke-width="0.8"/>
</svg>
